<svg xmlns="http://www.w3.org/2000/svg" width="125" height="125" viewBox="0 0 125 125">
<path d="M70.8 0L24.2 12.4 0 54.2l12.4 46.6L54.2 125l46.6-12.4L125 70.8l-12.4-46.6L70.8 0z" fill="#fe0"></path>
<path d="M71.5 114.7l-39.6-8.9-21.6-34.2L19.2 32l34.3-21.7 39.6 9 21.7 34.3-9 39.6-34.3 21.5z" fill="#ffe500"></path>
<path d="M29.7 83l-4.9-29.1L42 29.7l29.1-4.9L95.3 42l4.9 29.2L83 95.3l-29.2 4.9L29.7 83z" fill="#ffd800"></path>
<path d="M46.9 83.2l-10-17 5-19.2 17-10.1 19.2 5L88.2 59l-5 19.2-17.1 10-19.2-5z" fill="#fc0"></path>
<path d="M49.3 58.7l6.5-8.2 10.5-1.2 8.3 6.5 1.1 10.5-6.5 8.3-10.5 1.1-8.3-6.5-1.1-10.5z" fill="#fcbe00"></path>
<path d="M25.1 38.9H24v-2h1.1v-3h2.2v3h1.2v2h-1.2V46h-2.2v-7.1zm4.3-4.9h2.2v3.6c.3-.3 1-.9 2.4-.9 1 0 2.2.5 2.8 1.3.7.9.7 2.2.7 2.9v5.2h-2.2v-4.7c0-.9-.1-2.8-1.9-2.8-1.9 0-1.9 2-1.9 2.8v4.7h-2.2c.1 0 .1-12.1.1-12.1zm16.7 6.8c-.2-1.4-1.3-2.2-2.5-2.2-.8 0-2.2.4-2.6 2.2h5.1zm-5 1.8c.1.6.9 1.9 2.5 1.9.9 0 1.7-.4 2.1-1.1H48c-.5 1.7-2.3 3.2-4.3 3.2-2.7 0-4.8-2.2-4.8-4.8 0-2.6 2-5 4.8-5 2.9 0 4.7 2.5 4.7 4.8 0 .4-.1.8-.1 1.1-.1 0-7.2-.1-7.2-.1zm13.1-3.9c-1.8 0-2.7 1.6-2.7 2.9 0 1.6 1.1 2.8 2.7 2.8s2.7-1.1 2.7-2.9c0-1.8-1.4-2.8-2.7-2.8m4.7 7.4h-2V45c-.7.8-2.1 1.4-3.2 1.4-2.4 0-4.5-1.9-4.5-4.9 0-2.8 2.1-4.8 4.6-4.8 1.9 0 2.9 1.3 3 1.4V37h2v9.1h.1zm2.2-7.2h-1v-2h1v-3h2.3v3h1.2v2h-1.2V46h-2.3v-7.1zm11.3 1.9c-.2-1.4-1.3-2.2-2.5-2.2-.8 0-2.2.4-2.6 2.2h5.1zm-5 1.8c.1.6.9 1.9 2.5 1.9.9 0 1.7-.4 2.1-1.1h2.3c-.5 1.7-2.3 3.2-4.3 3.2-2.7 0-4.8-2.2-4.8-4.8 0-2.6 2-5 4.8-5 2.9 0 4.7 2.5 4.7 4.8 0 .4-.1.8-.1 1.1l-7.2-.1zm8.8-5.6h2v.8c.4-.6.8-1.1 2-1.1h.2v2.1c-2 .1-2 1.7-2 2.2v5h-2.2v-9zM28.9 54.1c-1.8 0-2.7 1.6-2.7 2.9 0 1.6 1.1 2.8 2.7 2.8s2.7-1.1 2.7-2.9c0-1.9-1.4-2.8-2.7-2.8m4.8 7.3h-2v-1.1c-.7.8-2.1 1.4-3.2 1.4-2.4 0-4.5-1.9-4.5-4.9 0-2.8 2.1-4.8 4.6-4.8 1.9 0 2.9 1.3 3 1.4v-1.1h2c0 .1.1 9.1.1 9.1zm2-12.1h2.2v7.4l2.9-4.3h2.6l-3.3 4.5 3.7 4.7H41l-3.1-4.2v4.2h-2.2V49.3z"></path>
<path d="M48.3 54.1c-1.8 0-2.7 1.6-2.7 2.9 0 1.6 1.1 2.8 2.7 2.8s2.7-1.1 2.7-2.9c0-1.9-1.4-2.8-2.7-2.8m4.7 7.3h-2v-1.1c-.7.8-2.1 1.4-3.2 1.4-2.4 0-4.5-1.9-4.5-4.9 0-2.8 2.1-4.8 4.6-4.8 1.9 0 2.9 1.3 3 1.4v-1.1h2v9c0 .1.1.1.1.1zm6.2-1.6c1.7 0 2.7-1.4 2.7-2.9 0-1.4-1.1-2.9-2.7-2.9-1.7 0-2.7 1.6-2.7 2.8 0 1.7 1.3 3 2.7 3m4.7 1.6h-2v-1.1c-.4.6-1.3 1.4-2.9 1.4-2.3 0-4.7-1.9-4.7-4.9 0-3.1 2.5-4.9 4.7-4.9 1.3 0 2.1.4 2.8 1.1v-3.8H64v12.1h-.1zm8.5-5.3c-.2-1.4-1.4-2.1-2.5-2.1-.8 0-2.2.4-2.6 2.2h5.1zm-5 1.8c.1.6.9 1.9 2.5 1.9.9 0 1.7-.4 2.1-1.1h2.3c-.5 1.7-2.3 3.2-4.3 3.2-2.7 0-4.8-2.2-4.8-4.8 0-2.6 2-5 4.8-5 2.9 0 4.7 2.5 4.7 4.8 0 .4-.1.8-.1 1.1h-7v-.1zm8.5-5.6h2v.7c.2-.3.8-1 2.4-1 .5 0 1.8.1 2.6 1.4.9-1.3 2.3-1.4 2.9-1.4 1.8 0 2.7.9 3 1.4.3.5.7 1.3.7 2.7v5.3h-2.2v-5.1c0-.5 0-2.4-1.8-2.4-.6 0-1.2.3-1.6.8-.3.5-.3 1.4-.3 2v4.6h-2.2v-5.1c0-1.2-.5-2.4-1.9-2.4-1.8 0-1.8 1.9-1.8 2.9v4.6h-2.2v-9h.4zm15.4 0h2.2v9.1h-2.2v-9.1zm0-3h2.2v2h-2.2v-2zm10.9 6.8c-.2-1.4-1.3-2.2-2.5-2.2-.8 0-2.2.4-2.6 2.2h5.1zm-5 1.8c.1.6.9 1.9 2.5 1.9.9 0 1.7-.4 2.1-1.1h2.3c-.5 1.7-2.3 3.2-4.3 3.2-2.7 0-4.8-2.2-4.8-4.8 0-2.6 2-5 4.8-5 2.9 0 4.7 2.5 4.7 4.8 0 .4-.1.8-.1 1.1h-7v-.1zm-68.1 18c2 0 3.6-1.6 3.6-3.6s-1.6-3.7-3.6-3.7-3.6 1.4-3.6 3.7c0 2 1.4 3.6 3.6 3.6m4.7.8h-1.1v-1.6c-.9 1.4-2.6 1.8-3.5 1.8-2.8 0-4.9-2.2-4.9-4.8 0-2.4 1.9-4.7 4.9-4.7.9 0 2.6.3 3.5 1.8v-1.6h1.1v9.1zm9.9 0h-1v-1.3c-.3.6-1.2 1.7-2.9 1.7-1.8 0-2.7-.8-3.1-1.3-.6-.8-.8-2-.8-2.9v-5H37v5c0 1.1.2 1.9.6 2.4.6.7 1.4.8 2.1.8s1.3-.1 1.9-.7c.5-.5.9-1.1.9-2.7v-4.8h1.1v8.9c0-.1.1-.1.1-.1zm6.3-.8c2.4 0 3.5-2.2 3.5-3.6 0-2-1.6-3.7-3.5-3.7-2.1 0-3.5 1.8-3.5 3.7s1.6 3.6 3.5 3.6m4.7-.6c0 .9 0 2.2-.8 3.3-1.1 1.6-3.2 1.7-3.5 1.7-1.2 0-3.7-.5-4.6-3.3H47c.3.7 1.1 2.3 3.3 2.3 1.6 0 3.2-.8 3.2-3.3v-.8c-.6 1.2-2.2 1.9-3.4 1.9-2.4 0-4.7-1.9-4.7-4.7 0-2.9 2.3-4.8 4.7-4.8.8 0 2.4.2 3.4 1.9v-1.6h1.1c.1-.1.1 7.4.1 7.4zm9.9 1.4h-1v-1.3c-.3.6-1.2 1.7-2.9 1.7-1.8 0-2.7-.8-3.1-1.3-.6-.8-.8-2-.8-2.9v-5h1.1v5c0 1.1.2 1.9.6 2.4.6.7 1.4.8 2.1.8.6 0 1.3-.1 1.9-.7.5-.5.9-1.1.9-2.7v-4.8h1.1c0-.1.1 8.8.1 8.8zm3.3-2.7c0 1.7 1.2 1.9 1.7 1.9 1 0 1.7-.6 1.7-1.7 0-1.2-1.1-1.6-1.8-1.8-.9-.3-2.4-.8-2.4-2.5 0-1.2.9-2.5 2.6-2.5 1.3 0 2.5 1 2.5 2.5H71c-.1-1.1-.8-1.4-1.3-1.4-.9 0-1.3.7-1.3 1.3 0 .9.9 1.2 1.7 1.4 1 .3 2.6.9 2.6 2.8 0 1.6-.9 2.8-2.8 2.8-1.2 0-2.8-.8-2.8-2.9h.8zm7.3-5.2h-1.9v-1h1.9v-3.1h1.1v3.1h2.2v1h-2.2v8h-1.1v-8zM32.4 87c-.3-2.1-2.1-3.1-3.5-3.1s-3.2.9-3.5 3.1h7zm-7 1c.1 1.8 1.8 3.2 3.5 3.2s2.8-1 3.2-2.1h1.2c-.6 1.8-2.4 3.1-4.5 3.1-2.5 0-4.7-2.1-4.7-4.7s2.1-4.7 4.7-4.8c2 0 3.3 1.1 4 2.3.6.9.7 2 .7 2.8h-8.3c.2.1.2.2.2.2zm8.7-4.9h1.2l3.1 7.6 3.2-7.6h1.2l-3.7 9h-1.3l-3.7-9zM51.5 87c-.3-2.1-2.1-3.1-3.5-3.1s-3.2.9-3.5 3.1h7zm-7 1c.1 1.8 1.8 3.2 3.5 3.2s2.8-1 3.2-2.1h1.2c-.6 1.8-2.4 3.1-4.5 3.1-2.5 0-4.7-2.1-4.7-4.7s2.1-4.7 4.7-4.8c2 0 3.3 1.1 4 2.3.6.9.7 2 .7 2.8h-8.3c.2.1.2.2.2.2zm9.9-4.9h1.1v1.2c.5-1.2 1.6-1.4 2.5-1.6V84c-.8.1-1.4.3-2 .9-.4.5-.6 1.1-.6 1.9v5.3h-1.1v-9h.1zm8.9 8.1c2 0 3.6-1.6 3.6-3.6s-1.6-3.7-3.6-3.7-3.6 1.4-3.6 3.7c0 2 1.4 3.6 3.6 3.6m4.6.9h-1.1v-1.6c-.9 1.4-2.6 1.8-3.5 1.8-2.8 0-4.9-2.2-4.9-4.8 0-2.4 1.9-4.7 4.9-4.7.9 0 2.5.3 3.5 1.8V80h1.1v12.1zm2.2-9h1.1v9h-1.1v-9zm0-3.1h1.1v2h-1.1v-2zm3.3 3.1h1.1v1.1c.3-.5 1.2-1.3 2.8-1.3 1.1 0 2 .3 2.8 1.1.6.6 1.1 1.7 1.1 3.2v5h-1.1v-5c0-1.1-.3-2-.8-2.5-.6-.6-1.4-.7-2-.7s-1.3.2-2 .7c-.5.5-.8 1.2-.8 2.5v5h-1.1v-9.1zm14.2 8.1c2.4 0 3.5-2.2 3.5-3.6 0-2-1.6-3.7-3.5-3.7-2.1 0-3.5 1.8-3.5 3.7s1.5 3.6 3.5 3.6m4.7-.6c0 .9 0 2.2-.8 3.3-1.1 1.6-3.2 1.7-3.5 1.7-1.2 0-3.7-.5-4.6-3.3h1.2c.3.7 1.1 2.3 3.3 2.3 1.6 0 3.2-.8 3.2-3.3v-.8c-.6 1.2-2.2 1.9-3.4 1.9-2.4 0-4.7-1.9-4.7-4.7 0-2.9 2.3-4.8 4.7-4.8.8 0 2.4.2 3.4 1.9v-1.6h1.1l.1 7.4z"></path>
</svg>

