<?xml version='1.0' encoding='iso-8859-1'?>
<svg version="1.1" xmlns="http://www.w3.org/2000/svg" viewBox="0 0 232 232" xmlns:xlink="http://www.w3.org/1999/xlink" enable-background="new 0 0 232 232">
  <g>
    <path d="m116,0c-64.065,0-116,51.935-116,116s51.935,116 116,116 116-51.935 116-116-51.935-116-116-116zm-73.75,149.5c-13.669,0-24.75-11.081-24.75-24.75s11.081-24.75 24.75-24.75 24.75,11.081 24.75,24.75-11.081,24.75-24.75,24.75zm32.5,49c-4.557,0-8.25-3.693-8.25-8.25s3.693-8.25 8.25-8.25 8.25,3.693 8.25,8.25-3.693,8.25-8.25,8.25zm8.75-116c-9.112,0-16.5-7.387-16.5-16.5s7.388-16.5 16.5-16.5 16.5,7.387 16.5,16.5-7.388,16.5-16.5,16.5zm57.25-49c4.557,0 8.25,3.693 8.25,8.25s-3.693,8.25-8.25,8.25-8.25-3.693-8.25-8.25 3.693-8.25 8.25-8.25zm-8.25,165c-9.112,0-16.5-7.387-16.5-16.5s7.388-16.5 16.5-16.5 16.5,7.387 16.5,16.5-7.388,16.5-16.5,16.5zm.5-66c-9.112,0-16.5-7.387-16.5-16.5s7.388-16.5 16.5-16.5 16.5,7.387 16.5,16.5-7.388,16.5-16.5,16.5zm48.75-50c-4.557,0-8.25-3.693-8.25-8.25s3.693-8.25 8.25-8.25 8.25,3.693 8.25,8.25-3.693,8.25-8.25,8.25zm25,50c-4.557,0-8.25-3.693-8.25-8.25 0-4.557 3.693-8.25 8.25-8.25s8.25,3.693 8.25,8.25c0,4.557-3.693,8.25-8.25,8.25z"/>
  </g>
</svg>
