<svg width="48" height="48" viewBox="0 0 48 48" fill="none" xmlns="http://www.w3.org/2000/svg">
<path d="M14 14.14L16.86 17C18.68 15.18 21.22 14.04 24 14.04C26.78 14.04 29.32 15.18 31.14 17L34 14.14C31.44 11.58 27.9 10 24 10C20.1 10 16.56 11.58 14 14.14ZM24 2C17.96 2 12.48 4.46 8.5 8.42L11.32 11.24C14.56 8 19.06 6 24 6C28.94 6 33.44 8 36.68 11.24L39.5 8.42C35.52 4.46 30.04 2 24 2ZM29.72 20.02L18.28 20C17.02 20 16 21.02 16 22.28V41.7C16 42.96 17.02 43.98 18.28 43.98H29.7C30.96 43.98 31.98 42.96 31.98 41.7V22.28C32 21.02 30.98 20.02 29.72 20.02ZM30 40H18V24H30V40Z" fill="white"/>
</svg>
